<svg width="32px" height="29px" viewBox="0 0 32 29" fill="none" xmlns="http://www.w3.org/2000/svg" preserveAspectRatio="none">
<path d="M0.727153 13.8476C0.590603 13.8407 0.455066 13.874 0.337639 13.9431C0.220212 14.0123 0.126158 14.1142 0.0673368 14.236C0.00851572 14.3578 -0.0124408 14.4941 0.00712083 14.6277C0.0266824 14.7612 0.085886 14.8861 0.177253 14.9865C0.26862 15.0869 0.388062 15.1583 0.520515 15.1918C0.652967 15.2253 0.792494 15.2193 0.921499 15.1746C1.0505 15.1299 1.16321 15.0485 1.24539 14.9406C1.32757 14.8328 1.37556 14.7033 1.38328 14.5685C1.39288 14.3871 1.3292 14.2093 1.2062 14.0742C1.08321 13.939 0.91093 13.8575 0.727153 13.8476Z" fill="#272727"/>
<path d="M8.76468 14.3879C8.73483 14.9491 8.93177 15.4992 9.31227 15.9173C9.69277 16.3354 10.2258 16.5874 10.7943 16.6181C10.8378 16.6203 10.8777 16.6216 10.9186 16.6216C11.3364 16.6186 11.7441 16.495 12.0916 16.2662C12.4391 16.0373 12.7113 15.7131 12.8745 15.3336C13.0377 14.954 13.0849 14.5356 13.0103 14.1298C12.9356 13.7241 12.7424 13.3488 12.4544 13.0501C12.1663 12.7514 11.7961 12.5424 11.3892 12.4488C10.9824 12.3551 10.5567 12.381 10.1645 12.5232C9.77237 12.6654 9.43091 12.9177 9.18218 13.249C8.93346 13.5803 8.78834 13.9762 8.76468 14.3879Z" fill="#272727"/>
<path d="M0.727153 13.8476C0.590603 13.8407 0.455066 13.874 0.337639 13.9431C0.220212 14.0123 0.126158 14.1142 0.0673368 14.236C0.00851572 14.3578 -0.0124408 14.4941 0.00712083 14.6277C0.0266824 14.7612 0.085886 14.8861 0.177253 14.9865C0.26862 15.0869 0.388062 15.1583 0.520515 15.1918C0.652967 15.2253 0.792494 15.2193 0.921499 15.1746C1.0505 15.1299 1.16321 15.0485 1.24539 14.9406C1.32757 14.8328 1.37556 14.7033 1.38328 14.5685C1.39288 14.3871 1.3292 14.2093 1.2062 14.0742C1.08321 13.939 0.91093 13.8575 0.727153 13.8476Z" fill="#272727"/>
<path d="M8.62807 2.13127C8.70958 2.09127 8.78227 2.03574 8.84195 1.9679C8.90163 1.90005 8.94711 1.82122 8.97579 1.73595C9.00446 1.65067 9.01576 1.56063 9.00903 1.47103C9.0023 1.38142 8.97768 1.29403 8.93658 1.21386C8.85207 1.05212 8.7063 0.929844 8.53095 0.873623C8.3556 0.817403 8.16485 0.831777 8.00018 0.913623C7.91863 0.953577 7.84591 1.00908 7.7862 1.07692C7.72649 1.14476 7.68098 1.2236 7.6523 1.3089C7.62361 1.39419 7.61233 1.48424 7.61909 1.57385C7.62585 1.66347 7.65052 1.75088 7.69168 1.83104C7.7761 1.99286 7.92187 2.1152 8.09725 2.17143C8.27263 2.22766 8.46342 2.21323 8.62807 2.13127Z" fill="#272727"/>
<path d="M10.8123 5.86498C10.9383 5.80332 11.0508 5.71764 11.1432 5.61286C11.2355 5.50808 11.306 5.38629 11.3504 5.25451C11.3948 5.12273 11.4124 4.98356 11.4021 4.84505C11.3917 4.70654 11.3537 4.57142 11.2902 4.44748C11.1603 4.19675 10.9353 4.00687 10.6642 3.91922C10.3931 3.83157 10.0978 3.85325 9.84285 3.97955C9.71671 4.0412 9.6042 4.12692 9.5118 4.23173C9.4194 4.33654 9.34895 4.45837 9.30451 4.5902C9.26008 4.72203 9.24253 4.86124 9.25289 4.9998C9.26325 5.13836 9.30131 5.27352 9.36488 5.39748C9.49459 5.64837 9.71964 5.8384 9.99085 5.926C10.2621 6.0136 10.5574 5.99165 10.8123 5.86498Z" fill="#272727"/>
<path d="M3.45493 8.43925C3.65177 8.56582 3.8913 8.61051 4.12137 8.56359C4.35143 8.51668 4.5534 8.38195 4.68332 8.18875C4.74707 8.09332 4.79105 7.98637 4.81271 7.87407C4.83438 7.76178 4.83331 7.64637 4.80956 7.53449C4.78581 7.42261 4.73985 7.31648 4.67433 7.22222C4.60881 7.12795 4.52503 7.04742 4.42783 6.98528C4.23106 6.85873 3.9916 6.81405 3.76161 6.86096C3.53161 6.90788 3.3297 7.04258 3.19987 7.23575C3.13604 7.33114 3.09199 7.43807 3.07026 7.55036C3.04853 7.66264 3.04955 7.77806 3.07327 7.88996C3.09698 8.00186 3.14292 8.10801 3.20843 8.20229C3.27394 8.29656 3.35772 8.37711 3.45493 8.43925Z" fill="#272727"/>
<path d="M4.76426 13.4691C4.55327 13.4586 4.34385 13.51 4.16241 13.6168C3.98097 13.7237 3.83562 13.8811 3.74472 14.0693C3.65381 14.2576 3.62142 14.4682 3.6516 14.6746C3.68179 14.881 3.7732 15.0739 3.91433 15.2291C4.05546 15.3843 4.23998 15.4947 4.44462 15.5466C4.64926 15.5984 4.86487 15.5892 5.06424 15.5202C5.26362 15.4513 5.43783 15.3256 5.56493 15.159C5.69204 14.9924 5.76633 14.7924 5.77844 14.5842C5.79349 14.3037 5.69515 14.0287 5.50501 13.8196C5.31487 13.6106 5.04847 13.4845 4.76426 13.4691Z" fill="#272727"/>
<path d="M3.57205 20.5649C3.46842 20.6159 3.37604 20.6866 3.30023 20.773C3.22441 20.8594 3.16667 20.9597 3.13032 21.0682C3.09397 21.1768 3.07972 21.2913 3.08842 21.4053C3.09711 21.5192 3.12857 21.6304 3.18097 21.7323C3.28766 21.9387 3.47268 22.0951 3.69571 22.1674C3.91873 22.2397 4.16167 22.2221 4.37157 22.1183C4.47521 22.0673 4.5676 21.9965 4.64342 21.9101C4.71924 21.8237 4.77698 21.7233 4.81333 21.6147C4.84968 21.5062 4.86392 21.3916 4.85522 21.2776C4.84652 21.1636 4.81505 21.0524 4.76263 20.9504C4.65596 20.744 4.47091 20.5876 4.24786 20.5154C4.02481 20.4432 3.78187 20.461 3.57205 20.5649Z" fill="#272727"/>
<path d="M7.7553 11.2874C8.03631 11.4684 8.37844 11.5324 8.70706 11.4654C9.03568 11.3984 9.32412 11.2058 9.50945 10.9297C9.60063 10.7935 9.66356 10.6407 9.69459 10.4803C9.72563 10.3199 9.72415 10.155 9.69026 9.99517C9.65636 9.83533 9.59071 9.68372 9.4971 9.54907C9.4035 9.41442 9.28379 9.29939 9.14489 9.21067C8.86399 9.02981 8.52205 8.96585 8.19358 9.03269C7.86511 9.09952 7.5767 9.29176 7.39116 9.56753C7.29994 9.70383 7.23697 9.85662 7.20589 10.0171C7.17481 10.1775 7.17624 10.3425 7.21009 10.5024C7.24395 10.6623 7.30956 10.814 7.40314 10.9487C7.49671 11.0835 7.61641 11.1986 7.7553 11.2874Z" fill="#272727"/>
<path d="M21.0333 5.7823C21.2723 5.93586 21.563 5.99004 21.8423 5.933C22.1215 5.87597 22.3666 5.71235 22.5242 5.47778C22.6017 5.36192 22.6552 5.23205 22.6816 5.09567C22.708 4.95929 22.7067 4.81911 22.6779 4.68321C22.6491 4.54731 22.5933 4.41838 22.5138 4.30388C22.4342 4.18938 22.3324 4.09156 22.2144 4.01609C21.9755 3.86224 21.6846 3.80787 21.4053 3.86484C21.1259 3.9218 20.8807 4.08548 20.7231 4.32019C20.6456 4.43611 20.5921 4.56603 20.5657 4.70246C20.5394 4.83889 20.5407 4.97912 20.5695 5.11506C20.5983 5.251 20.6542 5.37995 20.7338 5.49447C20.8134 5.60899 20.9152 5.70682 21.0333 5.7823Z" fill="#272727"/>
<path d="M23.2369 2.05538C23.3915 2.15463 23.5796 2.18963 23.7602 2.15276C23.9409 2.1159 24.0995 2.01016 24.2015 1.85852C24.2516 1.78352 24.2862 1.69947 24.3032 1.61124C24.3202 1.523 24.3193 1.43232 24.3007 1.3444C24.282 1.25649 24.2459 1.17309 24.1944 1.09901C24.143 1.02494 24.0772 0.96165 24.0008 0.912797C23.8462 0.813373 23.658 0.778236 23.4773 0.815023C23.2966 0.85181 23.1379 0.957547 23.0357 1.10924C22.9856 1.18428 22.951 1.26837 22.934 1.35667C22.917 1.44497 22.9179 1.53572 22.9366 1.62368C22.9553 1.71165 22.9915 1.7951 23.043 1.86919C23.0946 1.94329 23.1604 2.00656 23.2369 2.05538Z" fill="#272727"/>
<path d="M21.197 12.3775C20.9164 12.3616 20.6352 12.4005 20.3697 12.4918C20.1043 12.5832 19.8596 12.7252 19.6498 12.9099C19.4399 13.0946 19.269 13.3182 19.1467 13.5681C19.0244 13.818 18.9532 14.0892 18.9371 14.3663C18.921 14.6434 18.9603 14.9208 19.0529 15.1829C19.1454 15.4449 19.2894 15.6864 19.4765 15.8935C19.6636 16.1007 19.8902 16.2694 20.1433 16.3901C20.3965 16.5108 20.6713 16.5811 20.952 16.597C20.9954 16.5991 21.035 16.6004 21.0758 16.6004C21.6242 16.6016 22.1523 16.3959 22.552 16.0254C22.9518 15.6549 23.193 15.1476 23.2262 14.6073C23.243 14.3298 23.2036 14.0518 23.1102 13.7895C23.0167 13.5273 22.8713 13.2861 22.6822 13.08C22.4938 12.872 22.2656 12.7029 22.0107 12.5824C21.7558 12.4618 21.4793 12.3922 21.197 12.3775Z" fill="#272727"/>
<path d="M11.5223 11.1421C11.7023 11.4934 11.978 11.7883 12.3183 11.9936C12.6586 12.199 13.0501 12.3068 13.4489 12.3048C13.785 12.3041 14.1163 12.2266 14.417 12.0784C14.8495 11.8652 15.1961 11.5137 15.4003 11.0813C15.6045 10.6488 15.6544 10.1608 15.5417 9.6968C15.429 9.2328 15.1605 8.82012 14.7798 8.52602C14.3992 8.23192 13.9288 8.07373 13.4455 8.0772C13.1093 8.07796 12.7778 8.1553 12.4769 8.30322C12.2249 8.42722 12.0002 8.59915 11.8157 8.80914C11.6312 9.01912 11.4905 9.26303 11.4018 9.52683C11.3131 9.79063 11.2781 10.0691 11.2987 10.3463C11.3194 10.6235 11.3954 10.894 11.5223 11.1421Z" fill="#272727"/>
<path d="M28.4189 8.43509C28.5225 8.384 28.6148 8.3132 28.6906 8.22676C28.7664 8.14032 28.8241 8.03996 28.8605 7.93142C28.8968 7.82289 28.9111 7.70832 28.9024 7.59433C28.8937 7.48034 28.8623 7.36915 28.8099 7.26719C28.7032 7.06068 28.5182 6.90422 28.295 6.8319C28.0719 6.75959 27.8289 6.77731 27.6189 6.88119C27.5153 6.93219 27.4229 7.00292 27.3471 7.08931C27.2713 7.1757 27.2135 7.27605 27.1772 7.38457C27.1408 7.49309 27.1266 7.60763 27.1353 7.72161C27.144 7.83558 27.1754 7.94673 27.2278 8.04865C27.3346 8.25507 27.5197 8.4115 27.7428 8.48388C27.9658 8.55626 28.2088 8.53871 28.4189 8.43509Z" fill="#272727"/>
<path d="M22.9545 9.10497C22.8062 9.17759 22.6739 9.27847 22.5653 9.4018C22.4567 9.52512 22.374 9.66846 22.3218 9.82352C22.2696 9.97859 22.249 10.1423 22.2612 10.3053C22.2735 10.4682 22.3183 10.6272 22.3931 10.7729C22.5458 11.0676 22.8104 11.2908 23.1291 11.3939C23.4478 11.497 23.7948 11.4716 24.0946 11.3232C24.2429 11.2505 24.375 11.1495 24.4836 11.0261C24.5921 10.9027 24.6749 10.7594 24.727 10.6043C24.7792 10.4492 24.7998 10.2855 24.7876 10.1226C24.7754 9.95962 24.7307 9.80063 24.656 9.6548C24.5033 9.3601 24.2387 9.13694 23.92 9.03394C23.6013 8.93095 23.2542 8.95648 22.9545 9.10497Z" fill="#272727"/>
<path d="M15.9149 1.73768C16.0886 1.74621 16.261 1.70379 16.4104 1.61574C16.5597 1.52769 16.6793 1.39797 16.754 1.24293C16.8287 1.08789 16.8553 0.91447 16.8303 0.744553C16.8054 0.574637 16.73 0.415825 16.6137 0.288143C16.4974 0.160461 16.3454 0.0696294 16.1769 0.0270975C16.0083 -0.0154344 15.8308 -0.00776173 15.6667 0.0491524C15.5026 0.106066 15.3592 0.209682 15.2547 0.346912C15.1502 0.484142 15.0892 0.648852 15.0793 0.820273C15.0671 1.05124 15.1482 1.27754 15.3049 1.44954C15.4616 1.62153 15.6809 1.72515 15.9149 1.73768Z" fill="#272727"/>
<path d="M15.9058 7.20861C16.1545 7.22129 16.4015 7.16096 16.6154 7.03521C16.8294 6.90946 17.0009 6.72395 17.1081 6.5021C17.2154 6.28024 17.2536 6.03199 17.218 5.7887C17.1824 5.54541 17.0746 5.31799 16.9081 5.13514C16.7417 4.9523 16.5241 4.82223 16.2828 4.76138C16.0415 4.70052 15.7874 4.7116 15.5525 4.79321C15.3175 4.87482 15.1124 5.02332 14.9629 5.21993C14.8135 5.41655 14.7264 5.65247 14.7126 5.89791C14.6953 6.22776 14.8112 6.55092 15.0349 6.7966C15.2585 7.04228 15.5717 7.19044 15.9058 7.20861Z" fill="#272727"/>
<path d="M9.03953 19.89C9.18783 19.8173 9.32009 19.7164 9.4287 19.593C9.53731 19.4697 9.62011 19.3263 9.67233 19.1712C9.72456 19.0161 9.74518 18.8524 9.733 18.6894C9.72082 18.5264 9.67608 18.3674 9.60136 18.2216C9.44869 17.9268 9.18414 17.7035 8.86541 17.6004C8.54667 17.4974 8.19957 17.5228 7.89978 17.6713C7.75149 17.7439 7.61924 17.8448 7.51065 17.9681C7.40206 18.0915 7.31927 18.2348 7.26708 18.3899C7.21489 18.5449 7.19432 18.7087 7.20656 18.8716C7.21879 19.0346 7.2636 19.1935 7.33838 19.3393C7.49106 19.6339 7.75549 19.8571 8.0741 19.9603C8.39271 20.0634 8.7397 20.0381 9.03953 19.89Z" fill="#272727"/>
<path d="M16.7231 9.02025C16.5683 9.2523 16.4614 9.5123 16.4088 9.78527C16.3561 10.0582 16.3587 10.3388 16.4163 10.6108C16.4739 10.8827 16.5855 11.1408 16.7446 11.3701C16.9036 11.5993 17.1071 11.7953 17.3432 11.9466C17.8215 12.2542 18.4035 12.3629 18.9626 12.249C19.5217 12.1351 20.0125 11.8078 20.3283 11.3384C20.4832 11.1063 20.59 10.8463 20.6426 10.5734C20.6952 10.3004 20.6926 10.0198 20.6349 9.74781C20.5773 9.47582 20.4657 9.21779 20.3066 8.98855C20.1475 8.7593 19.944 8.56337 19.7078 8.41206C19.2296 8.10435 18.6477 7.99564 18.0886 8.10955C17.5296 8.22346 17.0388 8.55079 16.7231 9.02025Z" fill="#272727"/>
<path d="M20.4733 17.8575C20.2933 17.5061 20.0177 17.2112 19.6774 17.0057C19.3371 16.8003 18.9455 16.6925 18.5466 16.6944C18.2104 16.6948 17.8788 16.7724 17.5781 16.9208C17.1457 17.134 16.7991 17.4854 16.5949 17.9179C16.3907 18.3503 16.3408 18.8382 16.4534 19.3022C16.566 19.7662 16.8345 20.1788 17.2151 20.473C17.5956 20.7671 18.0659 20.9254 18.5493 20.922C18.8858 20.9215 19.2176 20.844 19.5187 20.6955C19.7707 20.5716 19.9954 20.3998 20.1799 20.1899C20.3643 19.98 20.505 19.7362 20.5937 19.4724C20.6824 19.2087 20.7175 18.9303 20.6968 18.6531C20.6761 18.376 20.6002 18.1056 20.4733 17.8575Z" fill="#272727"/>
<path d="M24.2308 17.7101C23.9497 17.5296 23.6077 17.4658 23.2792 17.5328C22.9507 17.5998 22.6623 17.7921 22.4767 18.0678C22.3855 18.2042 22.3227 18.357 22.2917 18.5175C22.2607 18.678 22.2622 18.8429 22.2962 19.0028C22.3301 19.1627 22.3958 19.3144 22.4894 19.4491C22.583 19.5838 22.7027 19.6989 22.8417 19.7877C23.1228 19.9684 23.4648 20.0322 23.7933 19.9652C24.1218 19.8982 24.4103 19.7059 24.5958 19.43C24.6871 19.2937 24.75 19.1408 24.7811 18.9803C24.8121 18.8198 24.8106 18.6549 24.7767 18.495C24.7428 18.335 24.677 18.1833 24.5833 18.0486C24.4896 17.9139 24.3698 17.7989 24.2308 17.7101Z" fill="#272727"/>
<path d="M28.3592 14.5358C28.3727 14.3257 28.3227 14.1163 28.2155 13.9342C28.1083 13.7522 27.9487 13.6056 27.7571 13.5132C27.5654 13.4208 27.3502 13.3866 27.1388 13.415C26.9274 13.4434 26.7293 13.5332 26.5697 13.6729C26.41 13.8125 26.296 13.9959 26.242 14.1996C26.1881 14.4034 26.1967 14.6183 26.2666 14.8172C26.3366 15.0162 26.4649 15.1901 26.6351 15.317C26.8054 15.4439 27.01 15.518 27.2229 15.53C27.3637 15.5385 27.5048 15.5195 27.6381 15.4741C27.7715 15.4287 27.8944 15.3578 27.9999 15.2655C28.1055 15.1732 28.1915 15.0612 28.2532 14.936C28.3148 14.8108 28.3509 14.6748 28.3592 14.5358Z" fill="#272727"/>
<path d="M31.3409 13.7851C31.2043 13.7782 31.0687 13.8114 30.9512 13.8804C30.8338 13.9495 30.7396 14.0514 30.6808 14.1732C30.6219 14.295 30.6009 14.4313 30.6204 14.5649C30.6399 14.6985 30.699 14.8234 30.7904 14.9238C30.8817 15.0243 31.0012 15.0957 31.1336 15.1293C31.2661 15.1628 31.4056 15.1568 31.5347 15.1121C31.6637 15.0674 31.7764 14.986 31.8586 14.8782C31.9408 14.7703 31.9888 14.6408 31.9966 14.5061C32.0062 14.3247 31.9425 14.147 31.8196 14.0119C31.6967 13.8767 31.5246 13.7952 31.3409 13.7851Z" fill="#272727"/>
<path d="M28.5372 20.5595C28.3405 20.4329 28.101 20.3883 27.871 20.4352C27.641 20.4821 27.4391 20.6168 27.3093 20.81C27.2454 20.9054 27.2014 21.0124 27.1796 21.1247C27.1579 21.237 27.1589 21.3525 27.1826 21.4644C27.2064 21.5763 27.2523 21.6825 27.3178 21.7768C27.3833 21.8712 27.4671 21.9517 27.5643 22.0139C27.7612 22.1405 28.0007 22.1852 28.2308 22.1383C28.4608 22.0913 28.6628 21.9566 28.7927 21.7634C28.8565 21.668 28.9006 21.561 28.9223 21.4487C28.944 21.3363 28.9429 21.2209 28.9192 21.1089C28.8954 20.997 28.8494 20.8908 28.7839 20.7965C28.7183 20.7022 28.6345 20.6216 28.5372 20.5595Z" fill="#272727"/>
<path d="M8.7547 26.9391C8.60015 26.8397 8.41208 26.8046 8.23142 26.8414C8.05077 26.8782 7.89214 26.9839 7.79006 27.1356C7.73984 27.2106 7.70518 27.2946 7.68806 27.3829C7.67095 27.4712 7.67173 27.5619 7.69036 27.6499C7.70898 27.7378 7.74509 27.8213 7.79659 27.8954C7.84808 27.9696 7.91394 28.0329 7.99037 28.0817C8.14498 28.1811 8.33309 28.2162 8.51375 28.1793C8.69442 28.1424 8.853 28.0366 8.95501 27.8849C9.00522 27.8099 9.03989 27.7259 9.057 27.6377C9.07411 27.5494 9.07332 27.4587 9.05469 27.3708C9.03606 27.2828 8.99996 27.1994 8.94847 27.1253C8.89698 27.0512 8.83112 26.9879 8.7547 26.9391Z" fill="#272727"/>
<path d="M23.367 26.8697C23.2855 26.9097 23.2128 26.9653 23.1532 27.0331C23.0935 27.101 23.048 27.1798 23.0194 27.2651C22.9908 27.3504 22.9795 27.4404 22.9863 27.53C22.9931 27.6196 23.0178 27.707 23.0589 27.7871C23.1434 27.9489 23.2891 28.0711 23.4643 28.1274C23.6396 28.1836 23.8303 28.1692 23.9949 28.0874C24.0764 28.0474 24.1491 27.9919 24.2088 27.9241C24.2684 27.8563 24.3139 27.7775 24.3426 27.6923C24.3713 27.607 24.3826 27.5171 24.3758 27.4275C24.3691 27.3379 24.3445 27.2505 24.3034 27.1704C24.2191 27.0085 24.0733 26.8861 23.8979 26.8297C23.7225 26.7734 23.5317 26.7878 23.367 26.8697Z" fill="#272727"/>
<path d="M15.2701 19.9782C15.4253 19.7463 15.5324 19.4864 15.5852 19.2134C15.638 18.9404 15.6355 18.6598 15.5778 18.3878C15.5201 18.1158 15.4083 17.8577 15.249 17.6286C15.0897 17.3994 14.886 17.2037 14.6496 17.0527C14.1715 16.745 13.5894 16.6363 13.0304 16.7502C12.4714 16.8641 11.9806 17.1914 11.6649 17.6609C11.5099 17.8929 11.4029 18.1529 11.3502 18.4259C11.2975 18.6989 11.3001 18.9795 11.3578 19.2515C11.4155 19.5236 11.5273 19.7816 11.6865 20.0108C11.8458 20.24 12.0495 20.4357 12.2859 20.5868C12.7641 20.8944 13.3461 21.003 13.9051 20.889C14.4641 20.775 14.9549 20.4477 15.2706 19.9782H15.2701Z" fill="#272727"/>
<path d="M10.9641 23.211C10.7252 23.0575 10.4345 23.0033 10.1553 23.0601C9.87616 23.117 9.63102 23.2803 9.47322 23.5147C9.39569 23.6306 9.34218 23.7605 9.31579 23.8969C9.2894 24.0333 9.29063 24.1735 9.31944 24.3095C9.34824 24.4454 9.40405 24.5744 9.48362 24.6889C9.56318 24.8034 9.66494 24.9013 9.78303 24.9768C10.022 25.1304 10.3127 25.1846 10.5919 25.1277C10.8712 25.0709 11.1164 24.9075 11.2743 24.6731C11.3518 24.5572 11.4053 24.4273 11.4317 24.2909C11.458 24.1544 11.4567 24.0142 11.4279 23.8783C11.399 23.7423 11.3432 23.6134 11.2636 23.4988C11.184 23.3843 11.0822 23.2865 10.9641 23.211Z" fill="#272727"/>
<path d="M15.9845 27.2619C15.8106 27.2531 15.638 27.2955 15.4885 27.3835C15.339 27.4715 15.2192 27.6012 15.1443 27.7563C15.0694 27.9115 15.0427 28.085 15.0677 28.255C15.0926 28.4251 15.168 28.5841 15.2843 28.7119C15.4007 28.8397 15.5528 28.9307 15.7215 28.9732C15.8901 29.0158 16.0678 29.0081 16.232 28.9511C16.3962 28.8942 16.5397 28.7905 16.6443 28.6531C16.7489 28.5157 16.8099 28.3509 16.8196 28.1793C16.8318 27.9484 16.7508 27.7221 16.5942 27.5502C16.4376 27.3782 16.2184 27.2745 15.9845 27.2619Z" fill="#272727"/>
<path d="M15.997 21.7897C15.7483 21.7771 15.5014 21.8374 15.2874 21.9631C15.0734 22.0889 14.902 22.2744 14.7947 22.4962C14.6875 22.718 14.6492 22.9662 14.6848 23.2095C14.7204 23.4528 14.8282 23.6802 14.9946 23.8631C15.161 24.0459 15.3785 24.176 15.6198 24.2369C15.861 24.2978 16.1151 24.2868 16.3501 24.2052C16.585 24.1237 16.7901 23.9753 16.9397 23.7787C17.0892 23.5822 17.1764 23.3463 17.1902 23.1009C17.2077 22.7709 17.0919 22.4476 16.8682 22.2018C16.6445 21.956 16.3312 21.8078 15.997 21.7897Z" fill="#272727"/>
<path d="M21.1788 23.1315C21.0527 23.1932 20.9402 23.279 20.8478 23.3838C20.7554 23.4887 20.6849 23.6105 20.6404 23.7424C20.596 23.8743 20.5785 24.0135 20.5888 24.1521C20.5992 24.2907 20.6373 24.4259 20.7009 24.5499C20.8306 24.8004 21.0554 24.9902 21.3263 25.0778C21.5972 25.1654 21.8922 25.1436 22.1469 25.0174C22.273 24.9557 22.3855 24.8699 22.4779 24.7651C22.5702 24.6603 22.6407 24.5385 22.6851 24.4067C22.7295 24.2749 22.7471 24.1357 22.7368 23.9971C22.7264 23.8586 22.6884 23.7234 22.6249 23.5995C22.4951 23.349 22.2703 23.1593 21.9995 23.0716C21.7286 22.984 21.4337 23.0055 21.1788 23.1315Z" fill="#272727"/>
</svg>
